<svg xmlns="http://www.w3.org/2000/svg" xmlns:xlink="http://www.w3.org/1999/xlink" x="0px" y="0px" viewBox="0 0 32 32" xml:space="preserve">
<path d="M25.148,10.832h-0.701c-0.379,0-0.641,0.08-0.787,0.238c-0.146,0.16-0.218,0.459-0.218,0.9v8.043
	c0,0.352,0.021,0.572,0.061,0.66c0.062,0.137,0.146,0.23,0.254,0.285c0.149,0.08,0.346,0.121,0.589,0.121h0.803v1.961h-6.814V21.08
	h0.527c0.387,0,0.646-0.029,0.782-0.092c0.136-0.061,0.235-0.152,0.3-0.279c0.064-0.125,0.097-0.355,0.097-0.695V11.3l-3.453,11.741
	h-1.96l-3.341-11.366v8.612c0,0.197,0.036,0.35,0.106,0.459c0.071,0.107,0.173,0.191,0.305,0.248
	c0.132,0.057,0.344,0.086,0.635,0.086h0.681v1.961h-5.81V21.08h0.572c0.361,0,0.608-0.031,0.741-0.096s0.231-0.166,0.296-0.305
	c0.064-0.139,0.097-0.395,0.097-0.768V11.97c0-0.366-0.024-0.603-0.072-0.711c-0.061-0.148-0.153-0.257-0.276-0.325
	c-0.123-0.067-0.316-0.102-0.582-0.102H7.202v-1.96h6.413l2.462,8.627l2.548-8.627h6.523V10.832z M32,0H0v32h32V0z"/>
</svg>
